<svg width="18" height="19" viewBox="0 0 18 19" fill="none" xmlns="http://www.w3.org/2000/svg">
<path d="M8.54297 12.2031C8.15625 12.5898 7.55859 12.5898 7.17188 12.2031L4.92188 9.95312C4.53516 9.56641 4.53516 8.96875 4.92188 8.58203C5.30859 8.19531 5.90625 8.19531 6.29297 8.58203L7.875 10.1289L11.6719 6.33203C12.0586 5.94531 12.6562 5.94531 13.043 6.33203C13.4297 6.71875 13.4297 7.31641 13.043 7.70312L8.54297 12.2031ZM18 9.25C18 14.2422 13.957 18.25 9 18.25C4.00781 18.25 0 14.2422 0 9.25C0 4.29297 4.00781 0.25 9 0.25C13.957 0.25 18 4.29297 18 9.25ZM9 1.9375C4.95703 1.9375 1.6875 5.24219 1.6875 9.25C1.6875 13.293 4.95703 16.5625 9 16.5625C13.0078 16.5625 16.3125 13.293 16.3125 9.25C16.3125 5.24219 13.0078 1.9375 9 1.9375Z" fill="#656F76"/>
</svg>
