<svg width="44" height="44" viewBox="0 0 44 44" fill="none" xmlns="http://www.w3.org/2000/svg">
<g filter="url(#filter0_d_382_428)">
<rect x="2" y="1" width="40" height="40" rx="8" fill="white"/>
<path d="M29.2472 13.1377H27.3136V12.3989C27.3136 12.183 27.1384 12.0078 26.9225 12.0078C26.7066 12.0078 26.5314 12.183 26.5314 12.3989V13.1377H19.9266V12.3989C19.9266 12.183 19.7514 12.0078 19.5355 12.0078C19.3196 12.0078 19.1444 12.183 19.1444 12.3989V13.1377H17.0804C15.905 13.139 14.9525 14.0914 14.9512 15.2668V21.7848C14.9512 22.0007 15.1264 22.1758 15.3423 22.1758C15.5582 22.1758 15.7333 22.0007 15.7333 21.7848V19.2211H30.5943V27.8682C30.5934 28.6119 29.9909 29.2144 29.2472 29.2152H17.0804C16.3368 29.2144 15.7342 28.6119 15.7333 27.8682V25.6086C15.7333 25.3927 15.5582 25.2175 15.3423 25.2175C15.1264 25.2175 14.9512 25.3927 14.9512 25.6086V27.8682C14.9525 29.0436 15.905 29.9961 17.0804 29.9975H29.2472C30.4226 29.9961 31.3751 29.0436 31.3765 27.8682V15.2668C31.3751 14.0914 30.4226 13.139 29.2472 13.1377ZM15.7333 18.4389V15.2668C15.7342 14.5231 16.3368 13.9206 17.0804 13.9198H19.1444V14.9817C18.5554 15.1739 18.1937 15.7657 18.291 16.3776C18.3884 16.9894 18.916 17.4396 19.5355 17.4396C20.155 17.4396 20.6826 16.9894 20.78 16.3776C20.8773 15.7657 20.5155 15.1739 19.9266 14.9817V13.9198H26.5314V14.9817C25.9425 15.1739 25.5807 15.7657 25.678 16.3776C25.7754 16.9894 26.303 17.4396 26.9225 17.4396C27.542 17.4396 28.0696 16.9894 28.167 16.3776C28.2643 15.7657 27.9026 15.1739 27.3136 14.9817V13.9198H29.2472C29.9909 13.9206 30.5934 14.5231 30.5943 15.2668V18.4389H15.7333ZM19.5355 15.7014C19.7995 15.7014 20.0135 15.9154 20.0135 16.1794C20.0135 16.4433 19.7995 16.6574 19.5355 16.6574C19.2716 16.6574 19.0575 16.4433 19.0575 16.1794C19.0579 15.9155 19.2717 15.7017 19.5355 15.7014ZM26.9225 15.7014C27.1865 15.7014 27.4005 15.9154 27.4005 16.1794C27.4005 16.4433 27.1865 16.6574 26.9225 16.6574C26.6586 16.6574 26.4445 16.4433 26.4445 16.1794C26.4449 15.9155 26.6588 15.7017 26.9225 15.7014Z" fill="#3CD856"/>
<path d="M19.3454 25.4626C19.1927 25.6154 19.1927 25.8628 19.3454 26.0156C19.4982 26.1684 19.7456 26.1684 19.8984 26.0156L21.9408 23.9733C22.0934 23.8206 22.0934 23.5731 21.9408 23.4204L19.8984 21.378C19.7456 21.2252 19.4982 21.2252 19.3454 21.378C19.1927 21.5308 19.1927 21.7783 19.3454 21.9311L20.7201 23.3058H13.0171C12.8012 23.3058 12.626 23.4809 12.626 23.6968C12.626 23.9128 12.8012 24.0879 13.0171 24.0879H20.7201L19.3454 25.4626Z" fill="#3CD856"/>
</g>
<defs>
<filter id="filter0_d_382_428" x="0" y="0" width="44" height="44" filterUnits="userSpaceOnUse" color-interpolation-filters="sRGB">
<feFlood flood-opacity="0" result="BackgroundImageFix"/>
<feColorMatrix in="SourceAlpha" type="matrix" values="0 0 0 0 0 0 0 0 0 0 0 0 0 0 0 0 0 0 127 0" result="hardAlpha"/>
<feOffset dy="1"/>
<feGaussianBlur stdDeviation="1"/>
<feComposite in2="hardAlpha" operator="out"/>
<feColorMatrix type="matrix" values="0 0 0 0 0.590625 0 0 0 0 0.5985 0 0 0 0 0.7875 0 0 0 0.24 0"/>
<feBlend mode="normal" in2="BackgroundImageFix" result="effect1_dropShadow_382_428"/>
<feBlend mode="normal" in="SourceGraphic" in2="effect1_dropShadow_382_428" result="shape"/>
</filter>
</defs>
</svg>
