<svg width="20" height="20" viewBox="0 0 20 20" fill="none" xmlns="http://www.w3.org/2000/svg">
<path d="M17.2472 2.13768H15.3136V1.39894C15.3136 1.18305 15.1384 1.00781 14.9225 1.00781C14.7066 1.00781 14.5314 1.18305 14.5314 1.39894V2.13768H7.92661V1.39894C7.92661 1.18305 7.75137 1.00781 7.53549 1.00781C7.3196 1.00781 7.14436 1.18305 7.14436 1.39894V2.13768H5.0804C3.90499 2.13904 2.95253 3.09136 2.95117 4.26677V10.7848C2.95117 11.0007 3.12641 11.1758 3.3423 11.1758C3.55818 11.1758 3.73328 11.0007 3.73328 10.7848V8.2211H18.5943V16.8682C18.5934 17.6119 17.9909 18.2144 17.2472 18.2152H5.0804C4.33676 18.2144 3.73423 17.6119 3.73328 16.8682V14.6086C3.73328 14.3927 3.55818 14.2175 3.3423 14.2175C3.12641 14.2175 2.95117 14.3927 2.95117 14.6086V16.8682C2.95253 18.0436 3.90499 18.9961 5.0804 18.9975H17.2472C18.4226 18.9961 19.3751 18.0436 19.3765 16.8682V4.26677C19.3751 3.09136 18.4226 2.13904 17.2472 2.13768ZM3.73328 7.43885V4.26677C3.73423 3.52313 4.33676 2.92061 5.0804 2.91979H7.14436V3.98168C6.55544 4.17391 6.19368 4.7657 6.29102 5.3776C6.38836 5.98937 6.91597 6.43963 7.53549 6.43963C8.155 6.43963 8.68262 5.98937 8.77996 5.3776C8.8773 4.7657 8.51554 4.17391 7.92661 3.98168V2.91979H14.5314V3.98168C13.9425 4.17391 13.5807 4.7657 13.678 5.3776C13.7754 5.98937 14.303 6.43963 14.9225 6.43963C15.542 6.43963 16.0696 5.98937 16.167 5.3776C16.2643 4.7657 15.9026 4.17391 15.3136 3.98168V2.91979H17.2472C17.9909 2.92061 18.5934 3.52313 18.5943 4.26677V7.43885H3.73328ZM7.53549 4.70139C7.7995 4.70139 8.01348 4.91538 8.01348 5.17939C8.01348 5.44326 7.7995 5.65738 7.53549 5.65738C7.27161 5.65738 7.05749 5.44326 7.05749 5.17939C7.0579 4.91551 7.27175 4.70167 7.53549 4.70139ZM14.9225 4.70139C15.1865 4.70139 15.4005 4.91538 15.4005 5.17939C15.4005 5.44326 15.1865 5.65738 14.9225 5.65738C14.6586 5.65738 14.4445 5.44326 14.4445 5.17939C14.4449 4.91551 14.6588 4.70167 14.9225 4.70139Z" fill="#3CD856"/>
<path d="M7.34536 14.4626C7.19269 14.6154 7.19269 14.8628 7.34536 15.0156C7.49817 15.1684 7.74559 15.1684 7.8984 15.0156L9.94075 12.9733C10.0934 12.8206 10.0934 12.5731 9.94075 12.4204L7.8984 10.378C7.74559 10.2252 7.49817 10.2252 7.34536 10.378C7.19269 10.5308 7.19269 10.7783 7.34536 10.9311L8.72007 12.3058H1.0171C0.801214 12.3058 0.625977 12.4809 0.625977 12.6968C0.625977 12.9128 0.801214 13.0879 1.0171 13.0879H8.72007L7.34536 14.4626Z" fill="#3CD856"/>
</svg>
