<svg width="45" height="44" viewBox="0 0 45 44" fill="none" xmlns="http://www.w3.org/2000/svg">
<g filter="url(#filter0_d_382_455)">
<rect x="2.3335" y="1" width="40" height="40" rx="8" fill="white"/>
</g>
<path d="M22.0562 22.5C20.4976 22.5 19.2124 21.2422 19.2397 19.6562C19.2397 18.0977 20.4976 16.8125 22.0562 16.8125C23.6147 16.8125 24.8999 18.0977 24.8999 19.6562C24.8999 21.2422 23.6421 22.5 22.0562 22.5ZM22.0562 18.125C21.2358 18.125 20.5249 18.8359 20.5249 19.6562C20.5249 20.5039 21.2358 21.1875 22.0562 21.1875C22.9038 21.1875 23.5874 20.5039 23.5874 19.6562C23.5874 18.8359 22.9038 18.125 22.0562 18.125ZM27.3335 18.125C26.103 18.125 25.146 17.168 25.146 15.9375C25.146 14.7344 26.103 13.75 27.3335 13.75C28.5366 13.75 29.521 14.7344 29.521 15.9375C29.521 17.168 28.5366 18.125 27.3335 18.125ZM23.4233 23.375C25.5835 23.375 27.3335 25.0156 27.3335 27.0391C27.3335 27.4492 26.978 27.75 26.5405 27.75H17.5991C17.1616 27.75 16.8335 27.4492 16.8335 27.0391C16.8335 25.0156 18.5562 23.375 20.7163 23.375H23.4233ZM18.2007 26.4375H25.939C25.6382 25.4531 24.6265 24.6875 23.4233 24.6875H20.689C19.4858 24.6875 18.4741 25.4531 18.2007 26.4375ZM28.3999 19C29.7397 19 30.8335 20.1484 30.8335 21.5703C30.8335 21.8438 30.6147 22.0625 30.3413 22.0625H24.8726C25.4468 21.4336 25.7749 20.5859 25.7749 19.6562C25.7749 19.5195 25.7476 19.3828 25.7476 19.2461C26.0483 19.1094 26.3765 19 26.7319 19H28.3999ZM18.3374 19.6562C18.3374 20.5859 18.6929 21.4336 19.2671 22.0625H13.7983C13.5249 22.0625 13.3335 21.8438 13.3335 21.5703C13.3335 20.1484 14.3999 19 15.7397 19H17.4077C17.7632 19 18.0913 19.082 18.3921 19.2461C18.3647 19.3828 18.3374 19.5195 18.3374 19.6562ZM16.8335 18.125C15.603 18.125 14.646 17.168 14.646 15.9375C14.646 14.7344 15.603 13.75 16.8335 13.75C18.0366 13.75 19.021 14.7344 19.021 15.9375C19.021 17.168 18.0366 18.125 16.8335 18.125Z" fill="#A700FF"/>
<defs>
<filter id="filter0_d_382_455" x="0.333496" y="0" width="44" height="44" filterUnits="userSpaceOnUse" color-interpolation-filters="sRGB">
<feFlood flood-opacity="0" result="BackgroundImageFix"/>
<feColorMatrix in="SourceAlpha" type="matrix" values="0 0 0 0 0 0 0 0 0 0 0 0 0 0 0 0 0 0 127 0" result="hardAlpha"/>
<feOffset dy="1"/>
<feGaussianBlur stdDeviation="1"/>
<feComposite in2="hardAlpha" operator="out"/>
<feColorMatrix type="matrix" values="0 0 0 0 0.590625 0 0 0 0 0.5985 0 0 0 0 0.7875 0 0 0 0.24 0"/>
<feBlend mode="normal" in2="BackgroundImageFix" result="effect1_dropShadow_382_455"/>
<feBlend mode="normal" in="SourceGraphic" in2="effect1_dropShadow_382_455" result="shape"/>
</filter>
</defs>
</svg>
