<svg width="21" height="20" viewBox="0 0 21 20" fill="none" xmlns="http://www.w3.org/2000/svg">
<g clip-path="url(#clip0_382_443)">
<path d="M18.0733 2.74192H16.3037V2.06591C16.3037 1.86824 16.1433 1.70801 15.9458 1.70801C15.7481 1.70801 15.5879 1.86824 15.5879 2.06591V2.74192H9.54326V2.06591C9.54326 1.86824 9.38303 1.70801 9.18535 1.70801C8.9878 1.70801 8.82757 1.86824 8.82757 2.06591V2.74192H6.93864C5.86293 2.74316 4.99123 3.61473 4.98999 4.69044V10.6554C4.98999 10.8531 5.15035 11.0133 5.3479 11.0133C5.54557 11.0133 5.7058 10.8531 5.7058 10.6554V8.3092H19.306V16.2228C19.3053 16.9033 18.7538 17.4548 18.0733 17.4555H6.93864C6.25803 17.4548 5.70655 16.9033 5.7058 16.2228V14.1549C5.7058 13.9573 5.54557 13.797 5.3479 13.797C5.15035 13.797 4.98999 13.9573 4.98999 14.1549V16.2228C4.99123 17.2986 5.86293 18.1701 6.93864 18.1714H18.0733C19.149 18.1701 20.0206 17.2986 20.0218 16.2228V4.69044C20.0206 3.61473 19.149 2.74316 18.0733 2.74192ZM5.7058 7.59338V4.69044C5.70655 4.00996 6.25803 3.45848 6.93864 3.45773H8.82757V4.42945C8.28853 4.60548 7.9575 5.147 8.04644 5.70694C8.13564 6.26688 8.61845 6.6789 9.18535 6.6789C9.75238 6.6789 10.2352 6.26688 10.3244 5.70694C10.4133 5.147 10.0823 4.60548 9.54326 4.42945V3.45773H15.5879V4.42945C15.0488 4.60548 14.7178 5.147 14.8067 5.70694C14.8959 6.26688 15.3788 6.6789 15.9458 6.6789C16.5127 6.6789 16.9955 6.26688 17.0847 5.70694C17.1738 5.147 16.8427 4.60548 16.3037 4.42945V3.45773H18.0733C18.7538 3.45848 19.3053 4.00996 19.306 4.69044V7.59338H5.7058ZM9.18535 5.08816C9.42694 5.08816 9.62288 5.28397 9.62288 5.52556C9.62288 5.76715 9.42694 5.96296 9.18535 5.96296C8.94389 5.96296 8.74795 5.76715 8.74795 5.52556C8.74833 5.28422 8.94401 5.08841 9.18535 5.08816ZM15.9458 5.08816C16.1872 5.08816 16.3832 5.28397 16.3832 5.52556C16.3832 5.76715 16.1872 5.96296 15.9458 5.96296C15.7042 5.96296 15.5083 5.76715 15.5083 5.52556C15.5086 5.28422 15.7043 5.08841 15.9458 5.08816Z" fill="#EA580C"/>
<path d="M2.4941 12.7631H9.54364C9.74132 12.7631 9.90155 12.6028 9.90155 12.4052C9.90155 12.2076 9.74132 12.0473 9.54364 12.0473H2.4941L3.75219 10.7892C3.89202 10.6495 3.89202 10.4229 3.75219 10.2831C3.61236 10.1433 3.38595 10.1433 3.24612 10.2831L1.37709 12.1521C1.23726 12.292 1.23726 12.5185 1.37709 12.6582L3.24612 14.5272C3.38595 14.6671 3.61236 14.6671 3.75219 14.5272C3.89202 14.3875 3.89202 14.161 3.75219 14.0212L2.4941 12.7631Z" fill="#EA580C"/>
</g>
<defs>
<clipPath id="clip0_382_443">
<rect width="20" height="20" fill="white" transform="translate(0.666748)"/>
</clipPath>
</defs>
</svg>
