<svg width="45" height="44" viewBox="0 0 45 44" fill="none" xmlns="http://www.w3.org/2000/svg">
<g filter="url(#filter0_d_382_442)">
<rect x="2.66675" y="1" width="40" height="40" rx="8" fill="white"/>
<g clip-path="url(#clip0_382_442)">
<path d="M30.0733 13.7419H28.3037V13.0659C28.3037 12.8682 28.1433 12.708 27.9458 12.708C27.7481 12.708 27.5879 12.8682 27.5879 13.0659V13.7419H21.5433V13.0659C21.5433 12.8682 21.383 12.708 21.1854 12.708C20.9878 12.708 20.8276 12.8682 20.8276 13.0659V13.7419H18.9386C17.8629 13.7432 16.9912 14.6147 16.99 15.6904V21.6554C16.99 21.8531 17.1503 22.0133 17.3479 22.0133C17.5456 22.0133 17.7058 21.8531 17.7058 21.6554V19.3092H31.306V27.2228C31.3053 27.9033 30.7538 28.4548 30.0733 28.4555H18.9386C18.258 28.4548 17.7066 27.9033 17.7058 27.2228V25.1549C17.7058 24.9573 17.5456 24.797 17.3479 24.797C17.1503 24.797 16.99 24.9573 16.99 25.1549V27.2228C16.9912 28.2986 17.8629 29.1701 18.9386 29.1714H30.0733C31.149 29.1701 32.0206 28.2986 32.0218 27.2228V15.6904C32.0206 14.6147 31.149 13.7432 30.0733 13.7419ZM17.7058 18.5934V15.6904C17.7066 15.01 18.258 14.4585 18.9386 14.4577H20.8276V15.4294C20.2885 15.6055 19.9575 16.147 20.0464 16.7069C20.1356 17.2669 20.6184 17.6789 21.1854 17.6789C21.7524 17.6789 22.2352 17.2669 22.3244 16.7069C22.4133 16.147 22.0823 15.6055 21.5433 15.4294V14.4577H27.5879V15.4294C27.0488 15.6055 26.7178 16.147 26.8067 16.7069C26.8959 17.2669 27.3788 17.6789 27.9458 17.6789C28.5127 17.6789 28.9955 17.2669 29.0847 16.7069C29.1738 16.147 28.8427 15.6055 28.3037 15.4294V14.4577H30.0733C30.7538 14.4585 31.3053 15.01 31.306 15.6904V18.5934H17.7058ZM21.1854 16.0882C21.4269 16.0882 21.6229 16.284 21.6229 16.5256C21.6229 16.7671 21.4269 16.963 21.1854 16.963C20.9439 16.963 20.748 16.7671 20.748 16.5256C20.7483 16.2842 20.944 16.0884 21.1854 16.0882ZM27.9458 16.0882C28.1872 16.0882 28.3832 16.284 28.3832 16.5256C28.3832 16.7671 28.1872 16.963 27.9458 16.963C27.7042 16.963 27.5083 16.7671 27.5083 16.5256C27.5086 16.2842 27.7043 16.0884 27.9458 16.0882Z" fill="#EA580C"/>
<path d="M14.4941 23.7631H21.5436C21.7413 23.7631 21.9015 23.6028 21.9015 23.4052C21.9015 23.2076 21.7413 23.0473 21.5436 23.0473H14.4941L15.7522 21.7892C15.892 21.6495 15.892 21.4229 15.7522 21.2831C15.6124 21.1433 15.3859 21.1433 15.2461 21.2831L13.3771 23.1521C13.2373 23.292 13.2373 23.5185 13.3771 23.6582L15.2461 25.5272C15.3859 25.6671 15.6124 25.6671 15.7522 25.5272C15.892 25.3875 15.892 25.161 15.7522 25.0212L14.4941 23.7631Z" fill="#EA580C"/>
</g>
</g>
<defs>
<filter id="filter0_d_382_442" x="0.666748" y="0" width="44" height="44" filterUnits="userSpaceOnUse" color-interpolation-filters="sRGB">
<feFlood flood-opacity="0" result="BackgroundImageFix"/>
<feColorMatrix in="SourceAlpha" type="matrix" values="0 0 0 0 0 0 0 0 0 0 0 0 0 0 0 0 0 0 127 0" result="hardAlpha"/>
<feOffset dy="1"/>
<feGaussianBlur stdDeviation="1"/>
<feComposite in2="hardAlpha" operator="out"/>
<feColorMatrix type="matrix" values="0 0 0 0 0.590625 0 0 0 0 0.5985 0 0 0 0 0.7875 0 0 0 0.24 0"/>
<feBlend mode="normal" in2="BackgroundImageFix" result="effect1_dropShadow_382_442"/>
<feBlend mode="normal" in="SourceGraphic" in2="effect1_dropShadow_382_442" result="shape"/>
</filter>
<clipPath id="clip0_382_442">
<rect width="20" height="20" fill="white" transform="translate(12.6667 11)"/>
</clipPath>
</defs>
</svg>
