<svg width="24" height="24" viewBox="0 0 24 24" fill="none" xmlns="http://www.w3.org/2000/svg">
<g clip-path="url(#clip0_382_386)">
<path d="M21 9.99609C21 16.9961 12 22.9961 12 22.9961C12 22.9961 3 16.9961 3 9.99609C3 7.60915 3.94821 5.31996 5.63604 3.63213C7.32387 1.94431 9.61305 0.996094 12 0.996094C14.3869 0.996094 16.6761 1.94431 18.364 3.63213C20.0518 5.31996 21 7.60915 21 9.99609Z" stroke="#E5E7CB" stroke-width="2" stroke-linecap="round" stroke-linejoin="round"/>
<path d="M12 12.9961C13.6569 12.9961 15 11.6529 15 9.99609C15 8.33924 13.6569 6.99609 12 6.99609C10.3431 6.99609 9 8.33924 9 9.99609C9 11.6529 10.3431 12.9961 12 12.9961Z" stroke="#E5E7CB" stroke-width="2" stroke-linecap="round" stroke-linejoin="round"/>
</g>
<defs>
<clipPath id="clip0_382_386">
<rect width="24" height="24" fill="white" transform="translate(0 -0.00390625)"/>
</clipPath>
</defs>
</svg>
