<svg width="340" height="94" viewBox="0 0 340 94" fill="none" xmlns="http://www.w3.org/2000/svg">
<rect x="270" y="46" width="70" height="48" rx="10" fill="white"/>
<path fill-rule="evenodd" clip-rule="evenodd" d="M300.088 82.8966L300.543 79.9984L299.53 79.9746H294.696L298.056 58.5874C298.066 58.5226 298.1 58.4625 298.149 58.4197C298.199 58.377 298.262 58.3535 298.329 58.3535H306.479C309.186 58.3535 311.053 58.9188 312.028 60.0347C312.485 60.5582 312.776 61.1053 312.917 61.7073C313.065 62.339 313.067 63.0937 312.923 64.0143L312.913 64.0813V64.6712L313.37 64.9313C313.755 65.1363 314.06 65.3709 314.295 65.6395C314.686 66.0872 314.939 66.6562 315.046 67.3304C315.156 68.024 315.12 68.8496 314.939 69.7841C314.73 70.8589 314.393 71.7952 313.938 72.5611C313.519 73.2669 312.986 73.8524 312.352 74.306C311.747 74.7371 311.029 75.0644 310.216 75.2738C309.429 75.4796 308.531 75.5835 307.547 75.5835H306.912C306.459 75.5835 306.018 75.7474 305.672 76.0414C305.325 76.3416 305.096 76.7516 305.026 77.2001L304.978 77.4611L304.175 82.5696L304.139 82.757C304.129 82.8164 304.112 82.846 304.088 82.866C304.066 82.8843 304.035 82.8966 304.005 82.8966H300.088" fill="#28356A"/>
<path fill-rule="evenodd" clip-rule="evenodd" d="M313.803 64.1494C313.779 64.3056 313.751 64.4652 313.72 64.6292C312.645 70.1704 308.967 72.0847 304.27 72.0847H301.879C301.304 72.0847 300.82 72.5034 300.731 73.0723L299.16 83.0788C299.102 83.4525 299.388 83.789 299.764 83.789H304.005C304.507 83.789 304.934 83.4227 305.013 82.9254L305.055 82.7091L305.853 77.6206L305.905 77.3415C305.983 76.8425 306.411 76.4759 306.913 76.4759H307.547C311.656 76.4759 314.873 74.8009 315.814 69.9532C316.206 67.9282 316.003 66.2372 314.964 65.048C314.649 64.6895 314.259 64.3918 313.803 64.1494" fill="#298FC2"/>
<path fill-rule="evenodd" clip-rule="evenodd" d="M312.678 63.6989C312.514 63.6507 312.344 63.6072 312.17 63.5679C311.996 63.5295 311.817 63.4955 311.632 63.4657C310.988 63.3611 310.281 63.3115 309.524 63.3115H303.136C302.978 63.3115 302.829 63.3472 302.695 63.4117C302.4 63.554 302.182 63.834 302.129 64.1769L300.769 72.82L300.73 73.0719C300.82 72.503 301.304 72.0844 301.878 72.0844H304.27C308.967 72.0844 312.644 70.1691 313.719 64.6288C313.751 64.4648 313.778 64.3052 313.802 64.149C313.53 64.0041 313.236 63.8802 312.919 63.7746C312.84 63.7485 312.759 63.7233 312.678 63.6989" fill="#22284F"/>
<path fill-rule="evenodd" clip-rule="evenodd" d="M302.129 64.1772C302.182 63.8344 302.401 63.5543 302.695 63.413C302.83 63.3483 302.978 63.3126 303.136 63.3126H309.524C310.281 63.3126 310.988 63.3625 311.633 63.4671C311.817 63.4966 311.996 63.5308 312.171 63.5692C312.344 63.6083 312.514 63.6521 312.678 63.7C312.76 63.7244 312.84 63.7498 312.919 63.775C313.237 63.8806 313.531 64.0054 313.803 64.1494C314.123 62.1016 313.801 60.7074 312.698 59.4449C311.482 58.0548 309.288 57.46 306.48 57.46H298.329C297.756 57.46 297.267 57.8786 297.178 58.4485L293.783 80.0557C293.716 80.4831 294.045 80.8688 294.474 80.8688H299.506L302.129 64.1772" fill="#28356A"/>
<rect y="46" width="70" height="48" rx="10" fill="white"/>
<path fill-rule="evenodd" clip-rule="evenodd" d="M33.0603 77.5169V71.475H36.1786C37.4564 71.475 38.535 71.0468 39.4142 70.2024L39.6252 69.9883C41.2313 68.24 41.1258 65.5163 39.4142 63.8988C38.5584 63.0425 37.3861 62.5786 36.1786 62.6024H31.1729V77.5169H33.0603ZM33.0605 69.643V64.4336H36.2262C36.9063 64.4336 37.5512 64.6953 38.0319 65.171C39.052 66.17 39.0754 67.8351 38.0905 68.8699C37.6098 69.3813 36.9297 69.6667 36.2262 69.643H33.0605ZM48.4296 68.1094C47.6207 67.3601 46.5187 66.9795 45.1237 66.9795C43.33 66.9795 41.9819 67.6455 41.0909 68.9657L42.7556 70.0242C43.3652 69.1203 44.1976 68.6684 45.2526 68.6684C45.9209 68.6684 46.5656 68.9181 47.0697 69.3701C47.5621 69.7983 47.8434 70.4167 47.8434 71.0709V71.5109C47.1166 71.1065 46.2022 70.8925 45.0768 70.8925C43.7638 70.8925 42.7087 71.2017 41.9233 71.832C41.1378 72.4624 40.7392 73.295 40.7392 74.3535C40.7158 75.3169 41.1261 76.2327 41.8529 76.8511C42.5915 77.5172 43.5293 77.8502 44.6313 77.8502C45.9326 77.8502 46.9642 77.2674 47.7497 76.1018H47.8317V77.5172H49.6371V71.2255C49.6371 69.9053 49.2385 68.8587 48.4296 68.1094ZM43.3069 75.6383C42.92 75.3528 42.6855 74.889 42.6855 74.3894C42.6855 73.8304 42.9434 73.3666 43.4476 72.9979C43.9635 72.6292 44.6084 72.4389 45.3705 72.4389C46.4258 72.427 47.2465 72.6649 47.8328 73.1406C47.8328 73.9494 47.5162 74.6511 46.8948 75.2458C46.332 75.8167 45.5698 76.1378 44.7725 76.1378C44.2449 76.1497 43.729 75.9713 43.3069 75.6383ZM53.6928 82.001L59.9998 67.3125H57.9483L55.0292 74.6389H54.9941L52.0047 67.3125H49.9531L54.0914 76.863L51.7468 82.001H53.6928Z" fill="#3C4043"/>
<path d="M26.544 70.1661C26.544 69.5834 26.4971 69.0006 26.4034 68.4297H18.4434V71.7242H23.0037C22.8161 72.7827 22.2065 73.7342 21.3155 74.3289V76.4697H24.0353C25.6296 74.983 26.544 72.7827 26.544 70.1661Z" fill="#4285F4"/>
<path d="M18.4442 78.5392C20.7185 78.5392 22.6411 77.778 24.0361 76.4697L21.3164 74.3289C20.5544 74.8522 19.5814 75.1496 18.4442 75.1496C16.2403 75.1496 14.3763 73.6391 13.7081 71.6172H10.9062V73.8294C12.3365 76.7195 15.2555 78.5392 18.4442 78.5392Z" fill="#34A853"/>
<path d="M13.708 71.6177C13.3563 70.5592 13.3563 69.4055 13.708 68.3351V66.1348H10.9058C9.69808 68.5492 9.69808 71.4036 10.9058 73.818L13.708 71.6177Z" fill="#FBBC04"/>
<path d="M18.4442 64.8023C19.6517 64.7785 20.8123 65.2423 21.6798 66.0868L24.0948 63.6367C22.559 62.1857 20.5427 61.3888 18.4442 61.4126C15.2555 61.4126 12.3365 63.2442 10.9062 66.1344L13.7081 68.3466C14.3763 66.3128 16.2403 64.8023 18.4442 64.8023Z" fill="#EA4335"/>
<rect x="180" y="46" width="70" height="48" rx="10" fill="white"/>
<path fill-rule="evenodd" clip-rule="evenodd" d="M215.395 80.7621C213.011 82.8187 209.92 84.0602 206.542 84.0602C199.005 84.0602 192.895 77.879 192.895 70.2542C192.895 62.6294 199.005 56.4482 206.542 56.4482C209.92 56.4482 213.011 57.6898 215.395 59.7464C217.778 57.6898 220.869 56.4482 224.247 56.4482C231.784 56.4482 237.895 62.6294 237.895 70.2542C237.895 77.879 231.784 84.0602 224.247 84.0602C220.869 84.0602 217.778 82.8187 215.395 80.7621Z" fill="#ED0006"/>
<path fill-rule="evenodd" clip-rule="evenodd" d="M215.395 80.7621C218.329 78.2298 220.19 74.4618 220.19 70.2542C220.19 66.0466 218.329 62.2786 215.395 59.7464C217.778 57.6898 220.869 56.4482 224.247 56.4482C231.784 56.4482 237.895 62.6294 237.895 70.2542C237.895 77.879 231.784 84.0602 224.247 84.0602C220.869 84.0602 217.778 82.8187 215.395 80.7621Z" fill="#F9A000"/>
<path fill-rule="evenodd" clip-rule="evenodd" d="M215.395 80.762C218.329 78.2297 220.19 74.4618 220.19 70.2542C220.19 66.0466 218.329 62.2786 215.395 59.7463C212.46 62.2786 210.6 66.0466 210.6 70.2542C210.6 74.4618 212.46 78.2297 215.395 80.762Z" fill="#FF5E00"/>
<rect x="90" y="46" width="70" height="48" rx="10" fill="white"/>
<path fill-rule="evenodd" clip-rule="evenodd" d="M111.251 78.5163H107.01L103.83 66.3846C103.679 65.8265 103.358 65.3331 102.887 65.1006C101.711 64.5163 100.414 64.0512 99 63.8167V63.3496H105.831C106.774 63.3496 107.481 64.0512 107.599 64.8661L109.249 73.6171L113.488 63.3496H117.61L111.251 78.5163ZM119.968 78.5163H115.963L119.261 63.3496H123.266L119.968 78.5163ZM128.447 67.5514C128.565 66.7346 129.272 66.2675 130.097 66.2675C131.393 66.1502 132.806 66.3848 133.984 66.9671L134.691 63.7016C133.513 63.2345 132.216 63 131.04 63C127.153 63 124.324 65.1008 124.324 68.0165C124.324 70.2346 126.328 71.3992 127.742 72.1008C129.272 72.8004 129.861 73.2675 129.743 73.9671C129.743 75.0165 128.565 75.4836 127.389 75.4836C125.974 75.4836 124.56 75.1338 123.266 74.5494L122.559 77.8169C123.973 78.3992 125.503 78.6338 126.917 78.6338C131.276 78.749 133.984 76.6502 133.984 73.5C133.984 69.5329 128.447 69.3004 128.447 67.5514V67.5514ZM148 78.5163L144.82 63.3496H141.405C140.698 63.3496 139.99 63.8167 139.755 64.5163L133.866 78.5163H137.989L138.812 76.3002H143.878L144.349 78.5163H148ZM141.993 67.4346L143.17 73.1506H139.872L141.993 67.4346Z" fill="#172B85"/>
<path d="M3.816 12.968V10.754H6.372C6.888 10.754 7.32 10.652 7.668 10.448C8.028 10.244 8.298 9.962 8.478 9.602C8.67 9.242 8.766 8.828 8.766 8.36C8.766 7.892 8.67 7.478 8.478 7.118C8.298 6.758 8.028 6.482 7.668 6.29C7.32 6.086 6.888 5.984 6.372 5.984H3.816V3.77H6.156C7.26 3.77 8.196 3.95 8.964 4.31C9.744 4.67 10.338 5.186 10.746 5.858C11.154 6.518 11.358 7.304 11.358 8.216V8.504C11.358 9.416 11.154 10.208 10.746 10.88C10.338 11.54 9.744 12.056 8.964 12.428C8.196 12.788 7.26 12.968 6.156 12.968H3.816ZM1.62 17V3.77H4.176V17H1.62ZM19.0686 17V14.102H18.6546V10.88C18.6546 10.316 18.5166 9.896 18.2406 9.62C17.9646 9.344 17.5386 9.206 16.9626 9.206C16.6626 9.206 16.3026 9.212 15.8826 9.224C15.4626 9.236 15.0366 9.254 14.6046 9.278C14.1846 9.29 13.8066 9.308 13.4706 9.332V7.208C13.7466 7.184 14.0586 7.16 14.4066 7.136C14.7546 7.112 15.1086 7.1 15.4686 7.1C15.8406 7.088 16.1886 7.082 16.5126 7.082C17.5206 7.082 18.3546 7.214 19.0146 7.478C19.6866 7.742 20.1906 8.156 20.5266 8.72C20.8746 9.284 21.0486 10.022 21.0486 10.934V17H19.0686ZM15.9186 17.252C15.2106 17.252 14.5866 17.126 14.0466 16.874C13.5186 16.622 13.1046 16.262 12.8046 15.794C12.5166 15.326 12.3726 14.762 12.3726 14.102C12.3726 13.382 12.5466 12.794 12.8946 12.338C13.2546 11.882 13.7526 11.54 14.3886 11.312C15.0366 11.084 15.7926 10.97 16.6566 10.97H18.9246V12.464H16.6206C16.0446 12.464 15.6006 12.608 15.2886 12.896C14.9886 13.172 14.8386 13.532 14.8386 13.976C14.8386 14.42 14.9886 14.78 15.2886 15.056C15.6006 15.332 16.0446 15.47 16.6206 15.47C16.9686 15.47 17.2866 15.41 17.5746 15.29C17.8746 15.158 18.1206 14.942 18.3126 14.642C18.5166 14.33 18.6306 13.91 18.6546 13.382L19.2666 14.084C19.2066 14.768 19.0386 15.344 18.7626 15.812C18.4986 16.28 18.1266 16.64 17.6466 16.892C17.1786 17.132 16.6026 17.252 15.9186 17.252ZM23.3176 20.852V18.71H25.1536C25.5016 18.71 25.7896 18.662 26.0176 18.566C26.2576 18.482 26.4556 18.338 26.6116 18.134C26.7676 17.942 26.8876 17.672 26.9716 17.324L29.5996 7.226H31.9936L29.0956 17.864C28.9036 18.596 28.6336 19.178 28.2856 19.61C27.9376 20.054 27.4876 20.372 26.9356 20.564C26.3956 20.756 25.7236 20.852 24.9196 20.852H23.3176ZM26.3596 16.784V14.804H28.4476V16.784H26.3596ZM25.5136 16.784L22.3456 7.226H24.8656L27.8716 16.784H25.5136ZM33.713 17V7.226H35.693V11.42H35.513C35.513 10.436 35.639 9.614 35.891 8.954C36.143 8.282 36.515 7.778 37.007 7.442C37.511 7.094 38.135 6.92 38.879 6.92H38.987C39.743 6.92 40.367 7.094 40.859 7.442C41.363 7.778 41.735 8.282 41.975 8.954C42.227 9.614 42.353 10.436 42.353 11.42H41.723C41.723 10.436 41.849 9.614 42.101 8.954C42.365 8.282 42.743 7.778 43.235 7.442C43.739 7.094 44.363 6.92 45.107 6.92H45.215C45.971 6.92 46.601 7.094 47.105 7.442C47.609 7.778 47.987 8.282 48.239 8.954C48.503 9.614 48.635 10.436 48.635 11.42V17H46.133V11.186C46.133 10.574 45.977 10.088 45.665 9.728C45.353 9.356 44.909 9.17 44.333 9.17C43.757 9.17 43.295 9.362 42.947 9.746C42.599 10.118 42.425 10.622 42.425 11.258V17H39.923V11.186C39.923 10.574 39.767 10.088 39.455 9.728C39.143 9.356 38.699 9.17 38.123 9.17C37.547 9.17 37.085 9.362 36.737 9.746C36.389 10.118 36.215 10.622 36.215 11.258V17H33.713ZM55.6827 17.342C54.8427 17.342 54.1047 17.198 53.4687 16.91C52.8447 16.622 52.3227 16.238 51.9027 15.758C51.4947 15.266 51.1827 14.72 50.9667 14.12C50.7627 13.52 50.6607 12.908 50.6607 12.284V11.942C50.6607 11.294 50.7627 10.67 50.9667 10.07C51.1827 9.458 51.4947 8.918 51.9027 8.45C52.3227 7.97 52.8387 7.592 53.4507 7.316C54.0627 7.028 54.7707 6.884 55.5747 6.884C56.6307 6.884 57.5127 7.118 58.2207 7.586C58.9407 8.042 59.4807 8.648 59.8407 9.404C60.2007 10.148 60.3807 10.952 60.3807 11.816V12.716H51.7227V11.186H58.8147L58.0407 11.942C58.0407 11.318 57.9507 10.784 57.7707 10.34C57.5907 9.896 57.3147 9.554 56.9427 9.314C56.5827 9.074 56.1267 8.954 55.5747 8.954C55.0227 8.954 54.5547 9.08 54.1707 9.332C53.7867 9.584 53.4927 9.95 53.2887 10.43C53.0967 10.898 53.0007 11.462 53.0007 12.122C53.0007 12.734 53.0967 13.28 53.2887 13.76C53.4807 14.228 53.7747 14.6 54.1707 14.876C54.5667 15.14 55.0707 15.272 55.6827 15.272C56.2947 15.272 56.7927 15.152 57.1767 14.912C57.5607 14.66 57.8067 14.354 57.9147 13.994H60.2187C60.0747 14.666 59.7987 15.254 59.3907 15.758C58.9827 16.262 58.4607 16.652 57.8247 16.928C57.2007 17.204 56.4867 17.342 55.6827 17.342ZM62.4708 17V7.226H64.4508V11.42H64.2708C64.2708 10.424 64.4028 9.596 64.6668 8.936C64.9308 8.264 65.3208 7.76 65.8368 7.424C66.3648 7.088 67.0188 6.92 67.7988 6.92H67.9068C69.0708 6.92 69.9528 7.298 70.5528 8.054C71.1528 8.798 71.4528 9.914 71.4528 11.402V17H68.9508V11.186C68.9508 10.586 68.7768 10.1 68.4288 9.728C68.0928 9.356 67.6248 9.17 67.0248 9.17C66.4128 9.17 65.9148 9.362 65.5308 9.746C65.1588 10.118 64.9728 10.622 64.9728 11.258V17H62.4708ZM78.3907 17.126C77.4907 17.126 76.7467 17.012 76.1587 16.784C75.5827 16.544 75.1507 16.148 74.8627 15.596C74.5747 15.032 74.4307 14.276 74.4307 13.328L74.4487 4.472H76.7887L76.7707 13.49C76.7707 13.97 76.8967 14.342 77.1487 14.606C77.4127 14.858 77.7847 14.984 78.2647 14.984H79.7947V17.126H78.3907ZM72.8827 9.062V7.226H79.7947V9.062H72.8827ZM92.1514 17.342C90.9634 17.342 89.9314 17.132 89.0554 16.712C88.1914 16.292 87.4714 15.746 86.8954 15.074C86.3314 14.39 85.9054 13.658 85.6174 12.878C85.3414 12.086 85.2034 11.324 85.2034 10.592V10.196C85.2034 9.392 85.3474 8.594 85.6354 7.802C85.9234 6.998 86.3554 6.272 86.9314 5.624C87.5194 4.976 88.2454 4.46 89.1094 4.076C89.9734 3.68 90.9874 3.482 92.1514 3.482C93.3034 3.482 94.3114 3.68 95.1754 4.076C96.0394 4.46 96.7594 4.976 97.3354 5.624C97.9234 6.272 98.3614 6.998 98.6494 7.802C98.9374 8.594 99.0814 9.392 99.0814 10.196V10.592C99.0814 11.324 98.9374 12.086 98.6494 12.878C98.3734 13.658 97.9474 14.39 97.3714 15.074C96.8074 15.746 96.0874 16.292 95.2114 16.712C94.3474 17.132 93.3274 17.342 92.1514 17.342ZM92.1514 14.966C92.8234 14.966 93.4234 14.846 93.9514 14.606C94.4914 14.366 94.9474 14.036 95.3194 13.616C95.7034 13.184 95.9914 12.698 96.1834 12.158C96.3874 11.606 96.4894 11.024 96.4894 10.412C96.4894 9.752 96.3874 9.146 96.1834 8.594C95.9914 8.042 95.7034 7.562 95.3194 7.154C94.9474 6.746 94.4914 6.428 93.9514 6.2C93.4114 5.972 92.8114 5.858 92.1514 5.858C91.4794 5.858 90.8734 5.972 90.3334 6.2C89.7934 6.428 89.3314 6.746 88.9474 7.154C88.5754 7.562 88.2874 8.042 88.0834 8.594C87.8914 9.146 87.7954 9.752 87.7954 10.412C87.7954 11.024 87.8914 11.606 88.0834 12.158C88.2874 12.698 88.5754 13.184 88.9474 13.616C89.3314 14.036 89.7934 14.366 90.3334 14.606C90.8734 14.846 91.4794 14.966 92.1514 14.966ZM101.354 20.6V7.226H103.334V11.438L103.028 11.42C103.076 10.424 103.28 9.59 103.64 8.918C104.012 8.246 104.504 7.748 105.116 7.424C105.728 7.088 106.412 6.92 107.168 6.92C107.864 6.92 108.488 7.046 109.04 7.298C109.604 7.55 110.084 7.904 110.48 8.36C110.888 8.816 111.2 9.35 111.416 9.962C111.632 10.562 111.74 11.21 111.74 11.906V12.284C111.74 12.992 111.632 13.652 111.416 14.264C111.212 14.864 110.906 15.398 110.498 15.866C110.102 16.322 109.622 16.682 109.058 16.946C108.494 17.198 107.864 17.324 107.168 17.324C106.436 17.324 105.764 17.174 105.152 16.874C104.552 16.562 104.066 16.088 103.694 15.452C103.322 14.804 103.112 13.97 103.064 12.95L103.856 14.156V20.6H101.354ZM106.538 15.218C107.078 15.218 107.546 15.086 107.942 14.822C108.35 14.558 108.668 14.192 108.896 13.724C109.124 13.244 109.238 12.704 109.238 12.104C109.238 11.48 109.124 10.94 108.896 10.484C108.668 10.028 108.35 9.674 107.942 9.422C107.546 9.158 107.078 9.026 106.538 9.026C106.046 9.026 105.59 9.134 105.17 9.35C104.762 9.566 104.426 9.884 104.162 10.304C103.91 10.724 103.784 11.228 103.784 11.816V12.536C103.784 13.1 103.916 13.58 104.18 13.976C104.444 14.372 104.786 14.678 105.206 14.894C105.626 15.11 106.07 15.218 106.538 15.218ZM118.188 17.126C117.288 17.126 116.544 17.012 115.956 16.784C115.38 16.544 114.948 16.148 114.66 15.596C114.372 15.032 114.228 14.276 114.228 13.328L114.246 4.472H116.586L116.568 13.49C116.568 13.97 116.694 14.342 116.946 14.606C117.21 14.858 117.582 14.984 118.062 14.984H119.592V17.126H118.188ZM112.68 9.062V7.226H119.592V9.062H112.68ZM122.16 17V7.226H124.662V17H122.16ZM120.792 9.098V7.226H124.662V9.098H120.792ZM123.078 6.056C122.586 6.056 122.22 5.93 121.98 5.678C121.752 5.414 121.638 5.09 121.638 4.706C121.638 4.298 121.752 3.968 121.98 3.716C122.22 3.464 122.586 3.338 123.078 3.338C123.57 3.338 123.93 3.464 124.158 3.716C124.386 3.968 124.5 4.298 124.5 4.706C124.5 5.09 124.386 5.414 124.158 5.678C123.93 5.93 123.57 6.056 123.078 6.056ZM132.243 17.342C131.379 17.342 130.617 17.204 129.957 16.928C129.297 16.652 128.739 16.28 128.283 15.812C127.827 15.332 127.479 14.792 127.239 14.192C127.011 13.592 126.897 12.968 126.897 12.32V11.942C126.897 11.27 127.017 10.634 127.257 10.034C127.509 9.422 127.863 8.882 128.319 8.414C128.787 7.934 129.351 7.562 130.011 7.298C130.671 7.022 131.415 6.884 132.243 6.884C133.071 6.884 133.815 7.022 134.475 7.298C135.135 7.562 135.693 7.934 136.149 8.414C136.617 8.882 136.971 9.422 137.211 10.034C137.451 10.634 137.571 11.27 137.571 11.942V12.32C137.571 12.968 137.451 13.592 137.211 14.192C136.983 14.792 136.641 15.332 136.185 15.812C135.729 16.28 135.171 16.652 134.511 16.928C133.851 17.204 133.095 17.342 132.243 17.342ZM132.243 15.2C132.855 15.2 133.371 15.068 133.791 14.804C134.211 14.528 134.529 14.162 134.745 13.706C134.961 13.238 135.069 12.71 135.069 12.122C135.069 11.522 134.955 10.994 134.727 10.538C134.511 10.07 134.187 9.704 133.755 9.44C133.335 9.164 132.831 9.026 132.243 9.026C131.655 9.026 131.145 9.164 130.713 9.44C130.293 9.704 129.969 10.07 129.741 10.538C129.513 10.994 129.399 11.522 129.399 12.122C129.399 12.71 129.507 13.238 129.723 13.706C129.951 14.162 130.275 14.528 130.695 14.804C131.115 15.068 131.631 15.2 132.243 15.2ZM139.762 17V7.226H141.742V11.42H141.562C141.562 10.424 141.694 9.596 141.958 8.936C142.222 8.264 142.612 7.76 143.128 7.424C143.656 7.088 144.31 6.92 145.09 6.92H145.198C146.362 6.92 147.244 7.298 147.844 8.054C148.444 8.798 148.744 9.914 148.744 11.402V17H146.242V11.186C146.242 10.586 146.068 10.1 145.72 9.728C145.384 9.356 144.916 9.17 144.316 9.17C143.704 9.17 143.206 9.362 142.822 9.746C142.45 10.118 142.264 10.622 142.264 11.258V17H139.762Z" fill="white"/>
</svg>
