<svg width="24" height="25" viewBox="0 0 24 25" fill="none" xmlns="http://www.w3.org/2000/svg">
<g clip-path="url(#clip0_382_392)">
<path d="M15.0504 5.4707C16.0272 5.66127 16.9248 6.13896 17.6285 6.84264C18.3322 7.54632 18.8099 8.44397 19.0004 9.4207L15.0504 5.4707ZM15.0504 1.4707C17.0797 1.69614 18.972 2.60488 20.4167 4.04771C21.8613 5.49054 22.7724 7.38171 23.0004 9.4107L15.0504 1.4707ZM22.0004 17.3907V20.3907C22.0016 20.6692 21.9445 20.9449 21.8329 21.2001C21.7214 21.4552 21.5577 21.6843 21.3525 21.8726C21.1473 22.0608 20.905 22.2042 20.6412 22.2934C20.3773 22.3826 20.0978 22.4158 19.8204 22.3907C16.7433 22.0563 13.7874 21.0048 11.1904 19.3207C8.77425 17.7854 6.72576 15.7369 5.19042 13.3207C3.5004 10.7119 2.44866 7.7417 2.12042 4.6507C2.09543 4.37417 2.1283 4.09546 2.21692 3.83233C2.30555 3.56919 2.44799 3.32739 2.63519 3.12232C2.82238 2.91726 3.05023 2.75341 3.30421 2.64123C3.5582 2.52904 3.83276 2.47096 4.11042 2.4707H7.11042C7.59573 2.46593 8.06621 2.63778 8.43418 2.95424C8.80215 3.27069 9.0425 3.71015 9.11042 4.1907C9.23704 5.15077 9.47187 6.09343 9.81042 7.0007C9.94497 7.35863 9.97408 7.74762 9.89433 8.12158C9.81457 8.49555 9.62928 8.83881 9.36042 9.1107L8.09042 10.3807C9.51398 12.8842 11.5869 14.9571 14.0904 16.3807L15.3604 15.1107C15.6323 14.8418 15.9756 14.6566 16.3495 14.5768C16.7235 14.497 17.1125 14.5262 17.4704 14.6607C18.3777 14.9993 19.3204 15.2341 20.2804 15.3607C20.7662 15.4292 21.2098 15.6739 21.527 16.0482C21.8441 16.4225 22.0126 16.9003 22.0004 17.3907Z" stroke="#E5E7CB" stroke-width="2" stroke-linecap="round" stroke-linejoin="round"/>
</g>
<defs>
<clipPath id="clip0_382_392">
<rect width="24" height="24" fill="white" transform="translate(0 0.470703)"/>
</clipPath>
</defs>
</svg>
