<svg width="24" height="25" viewBox="0 0 24 25" fill="none" xmlns="http://www.w3.org/2000/svg">
<path d="M23.9879 6.85527C23.8835 9.22196 22.2494 12.4572 19.0969 16.5624C15.8344 20.8551 13.07 23 10.8107 23C9.4137 23 8.22975 21.695 7.26312 19.0765C6.61541 16.674 5.97193 14.2716 5.32563 11.8763C4.60595 9.2563 3.83547 7.94703 3.01137 7.94703C2.83215 7.94703 2.20702 8.32908 1.12891 9.09461L0 7.61936C1.18253 6.56766 2.34813 5.51166 3.49821 4.45852C5.07304 3.07628 6.25698 2.35082 7.04722 2.27499C8.90992 2.09183 10.0586 3.38393 10.4918 6.14698C10.9532 9.13038 11.2778 10.9848 11.457 11.7117C11.9961 14.1843 12.5859 15.4177 13.2322 15.4177C13.7332 15.4177 14.4867 14.6193 15.4915 13.021C16.4962 11.4198 17.031 10.2035 17.1044 9.36505C17.2483 7.98281 16.7107 7.29598 15.4915 7.29598C14.9171 7.29598 14.3245 7.41904 13.7163 7.6766C14.9016 3.78601 17.1594 1.89437 20.4954 2.00455C22.9663 2.07466 24.1333 3.69443 23.9879 6.85527Z" fill="white"/>
</svg>
