<svg width="24" height="25" viewBox="0 0 24 25" fill="none" xmlns="http://www.w3.org/2000/svg">
<path fill-rule="evenodd" clip-rule="evenodd" d="M22.806 5.26818C23.5252 6.0016 23.76 7.66708 23.76 7.66708C23.76 7.66708 24 9.62336 24 11.5789V13.4128C24 15.3691 23.76 17.3246 23.76 17.3246C23.76 17.3246 23.5252 18.9901 22.806 19.7235C21.9837 20.5911 21.0719 20.6808 20.5565 20.7314C20.4998 20.737 20.4479 20.7421 20.4015 20.7477C17.043 20.9924 12 21 12 21C12 21 5.76 20.9426 3.84 20.7568C3.74903 20.7397 3.63876 20.7264 3.51388 20.7113C2.9057 20.6378 1.95113 20.5225 1.19325 19.7235C0.474 18.9901 0.24 17.3246 0.24 17.3246C0.24 17.3246 0 15.3691 0 13.4128V11.5789C0 9.62336 0.24 7.66708 0.24 7.66708C0.24 7.66708 0.474 6.0016 1.19325 5.26818C2.0174 4.39935 2.93006 4.31067 3.44548 4.2606C3.50136 4.25517 3.55258 4.25019 3.5985 4.24472C6.957 4 11.9948 4 11.9948 4H12.0052C12.0052 4 17.043 4 20.4015 4.24472C20.4474 4.2502 20.4987 4.25518 20.5546 4.26062C21.0696 4.3107 21.9827 4.39949 22.806 5.26818ZM9.52148 8.84375L9.52223 15.6348L16.006 12.251L9.52148 8.84375Z" fill="white"/>
</svg>
